<?xml version="1.0" encoding="UTF-8" standalone="no"?>
<!-- Created with Inkscape (http://www.inkscape.org/) -->

<svg
   xmlns:dc="http://purl.org/dc/elements/1.1/"
   xmlns:cc="http://creativecommons.org/ns#"
   xmlns:rdf="http://www.w3.org/1999/02/22-rdf-syntax-ns#"
   xmlns:svg="http://www.w3.org/2000/svg"
   xmlns="http://www.w3.org/2000/svg"
   xmlns:sodipodi="http://sodipodi.sourceforge.net/DTD/sodipodi-0.dtd"
   xmlns:inkscape="http://www.inkscape.org/namespaces/inkscape"
   width="145.92917mm"
   height="42.495853mm"
   viewBox="0 0 145.92917 42.495853"
   version="1.1"
   id="svg1030"
   inkscape:version="0.92.5 (2060ec1f9f, 2020-04-08)"
   sodipodi:docname="logo2.svg">
  <defs
     id="defs1024" />
  <sodipodi:namedview
     id="base"
     pagecolor="#ffffff"
     bordercolor="#666666"
     borderopacity="1.0"
     inkscape:pageopacity="0.0"
     inkscape:pageshadow="2"
     inkscape:zoom="0.98994949"
     inkscape:cx="97.479768"
     inkscape:cy="-106.61037"
     inkscape:document-units="in"
     inkscape:current-layer="layer1"
     showgrid="false"
     inkscape:window-width="1920"
     inkscape:window-height="1017"
     inkscape:window-x="1912"
     inkscape:window-y="-8"
     inkscape:window-maximized="1"
     fit-margin-top="0"
     fit-margin-left="0"
     fit-margin-right="0"
     fit-margin-bottom="0"
     inkscape:pagecheckerboard="true" />
  <metadata
     id="metadata1027">
    <rdf:RDF>
      <cc:Work
         rdf:about="">
        <dc:format>image/svg+xml</dc:format>
        <dc:type
           rdf:resource="http://purl.org/dc/dcmitype/StillImage" />
        <dc:title></dc:title>
      </cc:Work>
    </rdf:RDF>
  </metadata>
  <g
     inkscape:label="レイヤー 1"
     inkscape:groupmode="layer"
     id="layer1"
     transform="translate(-3.973475,-10.246692)">
    <circle
       cy="27.931305"
       cx="27.789814"
       id="circle1097"
       style="opacity:1;fill:#ff6600;fill-opacity:1;stroke:none;stroke-width:0.23462144;stroke-linecap:butt;stroke-linejoin:round;stroke-miterlimit:4;stroke-dasharray:none;stroke-dashoffset:0;stroke-opacity:1;paint-order:normal"
       r="15"
       transform="rotate(1.9801148)" />
    <circle
       r="15"
       transform="matrix(-0.64982995,0.76007963,0.76007963,0.64982995,0,0)"
       cy="39.139992"
       cx="4.5264654"
       id="circle1099"
       style="opacity:0.21600001;fill:none;fill-opacity:1;stroke:none;stroke-width:0.23462147;stroke-linecap:butt;stroke-linejoin:round;stroke-miterlimit:4;stroke-dasharray:none;stroke-dashoffset:0;stroke-opacity:1;paint-order:normal" />
    <path
       id="path1101"
       d="M 6.9134397,30.743232 A 19.999998,19.999998 0 0 0 19.30855,47.382023 v 3.427698 h 2.5001 v -2.592099 -2.350241 -0.23513 A 17.499998,17.499998 0 0 1 9.4285297,30.743232 Z m 37.2892003,0 a 17.499998,17.499998 0 0 1 -12.39408,14.88386 v 0.240289 2.3456 2.59674 h 2.500111 v -3.445269 a 19.999998,19.999998 0 0 0 12.40596,-16.62122 z"
       style="opacity:1;fill:#ff6600;fill-opacity:1;stroke:none;stroke-width:0.3128286;stroke-linecap:butt;stroke-linejoin:round;stroke-miterlimit:4;stroke-dasharray:none;stroke-dashoffset:0;stroke-opacity:1;paint-order:normal"
       inkscape:connector-curvature="0" />
    <circle
       r="12.5"
       transform="rotate(-165.08238)"
       cy="-21.002079"
       cx="-33.338837"
       id="circle1103"
       style="opacity:0.21600001;fill:none;fill-opacity:1;stroke:none;stroke-width:0.19551788;stroke-linecap:butt;stroke-linejoin:round;stroke-miterlimit:4;stroke-dasharray:none;stroke-dashoffset:0;stroke-opacity:1;paint-order:normal" />
    <circle
       style="opacity:0.21600001;fill:none;fill-opacity:1;stroke:none;stroke-width:0.23462147;stroke-linecap:butt;stroke-linejoin:round;stroke-miterlimit:4;stroke-dasharray:none;stroke-dashoffset:0;stroke-opacity:1;paint-order:normal"
       id="circle1105"
       cx="4.5264654"
       cy="39.139992"
       transform="matrix(-0.64982995,0.76007963,0.76007963,0.64982995,0,0)"
       r="15" />
    <path
       style="opacity:1;fill:#ff6600;fill-opacity:1;stroke:none;stroke-width:0.3128286;stroke-linecap:butt;stroke-linejoin:round;stroke-miterlimit:4;stroke-dasharray:none;stroke-dashoffset:0;stroke-opacity:1;paint-order:normal"
       d="M 6.9134397,30.743232 A 19.999998,19.999998 0 0 0 19.30855,47.382023 v 3.427698 h 2.5001 v -2.592099 -2.350241 -0.23513 A 17.499998,17.499998 0 0 1 9.4285297,30.743232 Z m 37.2892003,0 a 17.499998,17.499998 0 0 1 -12.39408,14.88386 v 0.240289 2.3456 2.59674 h 2.500111 v -3.445269 a 19.999998,19.999998 0 0 0 12.40596,-16.62122 z"
       id="path1107"
       inkscape:connector-curvature="0" />
    <circle
       style="opacity:0.21600001;fill:none;fill-opacity:1;stroke:none;stroke-width:0.19551788;stroke-linecap:butt;stroke-linejoin:round;stroke-miterlimit:4;stroke-dasharray:none;stroke-dashoffset:0;stroke-opacity:1;paint-order:normal"
       id="circle1109"
       cx="-33.338837"
       cy="-21.002079"
       transform="rotate(-165.08238)"
       r="12.5" />
    <rect
       y="48.871662"
       x="34.300846"
       height="2"
       width="113"
       id="rect1111"
       style="opacity:1;fill:#ff6600;fill-opacity:1;stroke:none;stroke-width:0.22014782;stroke-linecap:butt;stroke-linejoin:round;stroke-miterlimit:4;stroke-dasharray:none;stroke-dashoffset:0;stroke-opacity:1;paint-order:normal" />
    <g
       aria-label="元気玉"
       style="font-size:34.21873474px;line-height:1.25;font-family:'Otsutome_font Bold';-inkscape-font-specification:'Otsutome_font Bold, ';writing-mode:lr-tb;stroke:none;stroke-width:1.02656209;stroke-linecap:butt;stroke-linejoin:round;stroke-miterlimit:4;stroke-dasharray:none;stroke-dashoffset:0;paint-order:normal"
       id="text1117">
      <path
         d="m 51.778349,31.60741 q 0.6,-0.84 2.34,-1.17 1.77,-0.36 4.95,-0.45 3.21,-0.09 3.75,-0.15 1.17,-0.09 6.06,-0.09 2.58,0 4.29,0.06 1.71,0.06 1.65,0.18 1.08,0.69 1.08,1.41 0,1.14 -2.64,1.14 -0.63,0 -1.44,-0.09 h -2.46 v 0.6 q 0.09,0.33 0.15,3.06 0.09,2.7 0.15,5.19 0.09,2.46 0.24,2.46 0.03,-0.03 0.03,-0.06 0.15,0.12 1.5,0.33 1.38,0.18 2.19,0.18 h 0.78 v -2.01 q 0.12,-2.46 0.24,-2.97 0.15,-0.54 0.57,-0.54 h 0.18 q 1.29,0.54 1.95,1.68 0.69,1.11 1.23,2.73 0.54,1.62 1.2,2.52 -1.74,1.23 -5.7,1.23 -3.09,0 -5.64,-0.84 -2.55,-0.87 -3.03,-2.37 -0.12,-0.36 -0.12,-2.76 0,-1.83 0.03,-3.06 v -5.28 h -1.59 q -0.21,-0.03 -0.54,-0.03 -1.41,0 -1.41,1.35 0,0.45 0.21,1.77 0.24,1.29 0.24,2.04 0,1.59 -0.78,2.64 -0.12,0.33 -0.21,0.69 -0.09,0.36 -0.15,0.54 -0.03,0.18 -0.18,0.42 -0.15,0.24 -0.42,0.48 -0.09,0.39 -0.9,1.2 -0.81,0.81 -1.14,0.93 -2.28,1.71 -4.29,1.71 -0.09,0 -0.24,0 -0.15,-0.03 -0.24,-0.03 -0.21,-0.18 -0.21,-0.39 0,-0.33 0.78,-1.17 0.81,-0.87 1.05,-1.38 1.83,-1.77 2.34,-3.96 0.54,-2.22 0.6,-6.03 -0.33,-0.15 -1.68,-0.21 -1.35,-0.06 -2.52,-0.15 -1.14,-0.12 -1.2,-0.39 -0.45,0 -0.6,-0.12 -0.12,-0.15 -0.18,-0.39 -0.06,-0.27 -0.27,-0.45 z m 3.18,-7.74 q 0,-0.6 3.3,-0.9 3.3,-0.33 6.27,-0.33 5.04,0 8.34,0.48 1.5,0.72 1.5,1.26 0,0.3 -0.45,0.63 l -0.54,0.45 h -3.72 q -0.36,-0.03 -1.26,-0.03 -1.29,0 -4.53,0.15 -3.21,0.12 -4.59,0.12 -3.33,0 -3.45,-0.6 -0.3,-0.3 -0.6,-0.72 -0.27,-0.42 -0.27,-0.51 z"
         style="font-size:30px;writing-mode:lr-tb;stroke:none;stroke-width:1.02656209;stroke-linecap:butt;stroke-linejoin:round;stroke-miterlimit:4;stroke-dasharray:none;stroke-dashoffset:0;paint-order:normal"
         id="path824"
         inkscape:connector-curvature="0" />
      <path
         d="m 81.658349,32.38741 0.33,-0.39 1.92,-3.78 q 0.63,-1.38 0.87,-2.16 0.21,-0.75 0.45,-1.95 0.24,-1.2 0.3,-1.71 l 0.33,-1.02 q 0.12,-0.24 0.87,-0.48 0.48,-0.15 0.96,-0.15 0.63,0 1.2,0.27 0.33,0.15 0.69,0.69 0.36,0.54 0.39,0.87 0.03,0.33 0.27,0.39 0.03,0.03 0.21,0.03 0.54,0 2.19,-0.15 1.71,-0.18 3.9,-0.18 0.6,0 1.23,0 2.1,0.03 2.610001,0.09 0.54,0.03 0.93,0.24 0.48,0.24 0.69,0.57 0.21,0.3 0,0.48 -0.18,0.15 -0.03,0.27 0.18,0.09 0.03,0.18 -0.12,0.09 -0.21,0.3 -0.06,0.21 -0.75,0.45 -0.66,0.21 -3.390001,0.27 -2.73,0.03 -4.17,0.24 -1.14,0.15 -2.19,0.15 -0.3,0 -0.6,0 l -1.32,-0.03 -0.12,0.54 q -0.12,0.54 -0.48,1.14 -0.36,0.6 -0.66,1.17 -0.78,1.38 -3.27,2.91 l -1.98,0.75 q -0.48,0.27 -0.84,0.15 z m 1.89,14.01 q -0.21,-0.09 0.06,-0.3 0.09,-0.06 0.21,-0.15 0.51,-0.36 0.63,-0.6 0.15,-0.27 0.57,-0.48 0.45,-0.21 0.63,-0.45 0.18,-0.24 0.51,-0.42 0.66,-0.33 1.74,-1.32 0.45,-0.42 0.87,-0.81 0.3,-0.27 0.33,-0.36 0.06,-0.12 -0.06,-0.3 -0.27,-0.42 -1.17,-1.59 -0.87,-1.17 -1.17,-1.5 -0.42,-0.45 -0.45,-0.57 0,-0.12 -0.18,-0.18 -0.18,-0.06 -0.18,-0.21 0,-0.18 0.18,-0.24 0.18,-0.09 0.18,-0.27 0,-0.21 0.48,-0.3 0.48,-0.09 0.72,-0.24 0.21,-0.15 0.54,-0.15 0.27,0 0.6,0.09 0.39,0.12 0.9,0.27 0.54,0.12 1.38,0.93 0.84,0.78 0.84,0.93 0,0.15 0.15,0.15 0.15,0 0.36,-0.39 0.21,-0.39 0.3,-0.84 0.09,-0.42 0.33,-0.42 0.24,0 0.57,-0.3 0.33,-0.33 0.63,-0.33 0.3,0 0.36,-0.09 0.06,-0.09 0.66,-0.03 0.6,0.03 0.84,0.15 0.18,0.09 0.45,0.63 0.27,0.51 0.27,0.78 0,0.21 -0.39,0.99 -0.39,0.78 -0.84,1.47 -0.6,0.9 -1.2,1.35 -0.15,0.09 -0.09,0.21 0.06,0.09 0.51,0.39 0.63,0.48 1.08,0.69 0.48,0.18 1.05,0.54 0.57,0.33 0.96,0.48 0.39,0.12 0.39,0.3 0,0.15 0.21,0.33 0.21,0.15 0.21,0.45 0,0.27 0.21,0.42 0.21,0.15 0.09,0.36 -0.09,0.21 -0.45,0.39 -0.39,0.18 -0.66,0.18 -0.27,-0.03 -1.32,-0.27 -2.07,-0.51 -4.32,-1.8 -0.81,-0.45 -1.02,-0.45 -0.18,-0.03 -0.66,0.39 -0.27,0.24 -2.37,1.23 -1.05,0.51 -2.58,1.05 -1.23,0.42 -1.5,0.42 -0.06,0 -0.09,-0.03 -0.06,-0.09 -0.3,-0.18 z m 2.4,-12.33 q -0.24,-0.27 -0.18,-0.42 0.06,-0.15 0.51,-0.45 0.54,-0.36 0.9,-0.57 0.66,-0.45 3.51,-0.6 1.71,-0.09 4.86,-0.12 1.71,0 2.91,0.03 1.23,0.03 2.160001,0.15 0.96,0.09 1.47,0.3 0.51,0.18 0.87,0.45 0.36,0.27 0.36,0.66 0,0.39 -0.09,0.9 -0.09,0.27 -0.09,0.69 0,0.36 0.06,0.84 0.15,0.96 0.21,2.37 0.09,1.83 0.75,3.27 0.3,0.63 0.45,1.14 0.18,0.51 0.33,0.48 0.09,-0.03 0.42,-0.78 0.33,-0.78 0.45,-1.23 l 0.63,-1.05 q 0.12,-0.36 0,-0.54 -0.03,-0.06 0.06,-0.09 0.09,-0.03 0.21,-0.03 0.33,0 0.39,0.18 0.18,0.48 0.57,4.41 0.03,0.48 0.03,0.87 0,0.21 0,0.39 -0.03,0.54 -0.15,0.9 -0.12,0.36 -0.36,0.57 -0.36,0.3 -0.57,0.45 -0.18,0.18 -0.45,0.27 -0.24,0.09 -0.93,-0.06 -0.66,-0.15 -0.93,-0.33 -0.24,-0.18 -0.45,-0.18 -0.24,0 -1.5,-1.17 -0.39,-0.36 -0.99,-1.26 -0.6,-0.9 -0.87,-1.56 -0.570001,-1.32 -0.960001,-2.28 -0.27,-0.69 -0.63,-3.27 -0.27,-1.89 -0.33,-2.13 -0.03,-0.15 -0.99,-0.18 -0.93,-0.06 -5.22,-0.09 l -6.18,-0.03 v -0.33 q 0,-0.36 -0.24,-0.57 z m 3.27,-4.68 q -0.06,-0.33 0.09,-0.63 0.18,-0.3 0.42,-0.3 0.15,0 0.63,-0.27 0.72,-0.39 3.36,-0.57 1.32,-0.09 1.38,-0.15 0.06,0 0.72,0 0.42,0 1.14,0 2.07,0.06 2.94,0.45 0.750001,0.33 0.750001,0.9 0,0.12 -0.03,0.24 -0.09,0.42 -0.42,0.63 -0.330001,0.18 -1.110001,0.3 -0.78,0.12 -2.7,0.3 -2.73,0.24 -4.23,0.24 -1.5,0 -1.74,-0.24 -0.24,-0.21 -0.66,-0.33 -0.27,-0.09 -0.39,-0.18 -0.09,-0.12 -0.15,-0.39 z"
         style="font-size:30px;writing-mode:lr-tb;stroke:none;stroke-width:1.02656209;stroke-linecap:butt;stroke-linejoin:round;stroke-miterlimit:4;stroke-dasharray:none;stroke-dashoffset:0;paint-order:normal"
         id="path826"
         inkscape:connector-curvature="0" />
      <path
         d="m 112.31835,46.60741 v -0.78 q 0.33,-1.44 0.69,-1.62 0.39,-0.18 2.97,-0.27 7.02,-0.27 7.26,-0.36 0.09,-0.03 0.09,-0.09 0,-0.06 -0.15,-0.21 0,0.03 -0.03,0.03 -0.12,0 -0.15,-2.25 -0.03,-4.11 0,-4.53 0,-0.03 -0.03,-0.51 l -0.03,-0.72 h -2.31 q -0.18,0.03 -0.36,0.03 -1.77,0 -2.55,-0.33 -0.75,-0.36 -1.53,-1.23 0.06,-0.72 0.78,-0.96 0.72,-0.24 2.07,-0.24 0.36,0 0.84,0.03 0.51,0 0.9,0 h 0.24 l 1.89,-0.09 0.06,-4.02 q -0.03,-0.3 -0.03,-0.84 0,-0.51 0.06,-1.05 0.06,-0.54 0.06,-0.63 0,-0.3 -0.21,-0.36 l -1.14,-0.06 q -0.6,-0.03 -0.99,-0.03 -4.47,-0.12 -5.82,-0.39 -1.35,-0.27 -2.1,-1.05 -0.21,-0.21 -0.21,-0.42 0,-0.45 0.78,-0.72 0.81,-0.3 1.56,-0.3 h 0.15 q 3.6,0.21 7.53,0.21 1.77,0 5.94,-0.06 4.17,-0.06 6.78,-0.06 1.23,0 1.65,0.3 0.45,0.27 0.45,0.84 0,0.18 -0.06,0.72 -1.02,0.54 -1.95,0.69 -0.93,0.12 -5.22,0.27 -1.56,0.06 -1.98,0.18 -0.42,0.12 -0.42,0.57 0,0.09 0.03,0.54 0.06,0.45 0.06,0.78 0,0.48 -0.09,1.11 v 3.42 l 0.36,0.09 h 0.09 q 0.15,0 1.86,-0.06 1.71,-0.06 2.67,-0.06 1.44,0 1.62,0.18 h 0.06 q 0.45,0 0.75,0.42 0.33,0.39 0.33,0.9 0,0.9 -0.93,0.99 0.09,0.12 -1.53,0.21 -1.59,0.06 -3.15,0.09 -1.38,0.06 -1.65,0.12 l -0.39,0.09 -0.03,1.65 q -0.03,1.65 -0.03,1.74 v 1.74 q 0,2.22 -0.57,3.3 0.72,0.21 3.45,0.21 2.73,0 5.16,0.24 2.43,0.21 2.97,0.96 0.51,0.69 0.51,1.05 0,0.48 -0.81,0.6 -0.78,0.15 -2.46,0.15 -1.23,0 -6.36,-0.15 -5.13,-0.15 -7.68,-0.15 -2.22,0 -3.6,0.09 -1.08,0.09 -2.94,0.09 -1.83,0.03 -2.58,0.09 z m 18.78,-8.73 q 0.21,-0.39 1.26,-0.9 0.18,-0.03 0.51,-0.03 1.29,0 2.1,0.63 1.05,0.84 1.65,3.03 0.18,0.75 0.18,1.08 0,0.72 -0.72,0.72 -0.21,0 -0.33,-0.03 -1.02,-0.15 -1.83,-0.96 -0.78,-0.84 -1.53,-1.95 -0.75,-1.14 -1.29,-1.59 z"
         style="font-size:30px;writing-mode:lr-tb;stroke:none;stroke-width:1.02656209;stroke-linecap:butt;stroke-linejoin:round;stroke-miterlimit:4;stroke-dasharray:none;stroke-dashoffset:0;paint-order:normal"
         id="path828"
         inkscape:connector-curvature="0" />
    </g>
    <g
       aria-label="ソウルフードデリバリー"
       style="font-size:7.00000048px;line-height:1.25;font-family:'Otsutome_font Bold';-inkscape-font-specification:'Otsutome_font Bold, ';letter-spacing:0px;word-spacing:0px;writing-mode:lr-tb;stroke:#ffffff;stroke-width:0;stroke-miterlimit:4;stroke-dasharray:none"
       id="text1127">
      <path
         d="m 57.826343,13.716058 q 0,-0.154 0.217,-0.182 0.126,-0.021 0.238,-0.021 0.371,0 0.644,0.224 0.273,0.217 0.399,0.497 0.133,0.273 0.308,0.644 0.182,0.371 0.336,0.56 l -0.105,0.07 q -0.112,0.07 -0.259,0.07 -0.476,0 -1.099,-0.595 -0.623,-0.595 -0.623,-0.973 0,-0.063 0.014,-0.091 -0.07,-0.126 -0.07,-0.203 z m 1.785,4.984 q 0.007,-0.035 0.021,-0.35 l 2.037,-3.843 q 0.042,-0.112 0.147,-0.434 0.112,-0.322 0.203,-0.546 0.098,-0.231 0.203,-0.385 0.042,-0.063 0.063,-0.07 l 0.14,-0.035 q 0.119,-0.042 0.217,-0.042 0.238,0 0.364,0.196 0.126,0.196 0.126,0.469 0,0.217 -0.077,0.392 -0.028,0.049 -0.056,0.105 -0.035,0.077 -0.189,0.42 -0.147,0.343 -0.196,0.448 -0.049,0.105 -0.196,0.42 -0.147,0.315 -0.217,0.448 -0.063,0.126 -0.21,0.406 -0.147,0.28 -0.245,0.427 -0.091,0.14 -0.245,0.371 -0.147,0.231 -0.28,0.385 -0.126,0.147 -0.287,0.315 -0.154,0.168 -0.315,0.308 -0.217,0.189 -0.42,0.287 z"
         style="font-size:7.00000048px;writing-mode:lr-tb;stroke:#ffffff;stroke-width:0;stroke-miterlimit:4;stroke-dasharray:none"
         id="path831"
         inkscape:connector-curvature="0" />
      <path
         d="m 65.029343,14.493058 q 0,-0.532 0.791001,-0.532 0.266,0 0.742,0.07 l 0.686,0.042 -0.028,-0.189 q -0.056,-0.28 -0.056,-0.532 0,-0.084 0.014,-0.266 0.021,-0.238 0.196,-0.371 0.175,-0.133 0.406,-0.133 0.245,0 0.42,0.154 0.182,0.147 0.182,0.413 0,0.168 -0.133,0.462 -0.126,0.287 -0.126,0.434 0,0.07 0.014,0.105 0.147,0.049 0.574,0.049 0.035,0 0.105,0 0.07,-0.007 0.112,-0.007 0.266,0 0.441,0.014 0.175,0.014 0.371,0.056 0.196,0.042 0.294,0.147 0.105,0.105 0.105,0.273 0,0.007 -0.007,0.028 0,0.021 0,0.035 l -1.785,3.528 q -0.105,0.105 -0.287,0.231 -0.182,0.119 -0.315,0.119 -0.147,0 -0.168,-0.203 -0.014,-0.182 -0.014,-0.273 0,-0.406 0.112,-0.84 0.119,-0.434 0.259,-0.749 0.147,-0.322 0.308,-0.735 0.161,-0.42 0.231,-0.742 -0.084,-0.049 -0.721,-0.119 -0.63,-0.077 -1.064,-0.077 -0.315,0 -0.406,0.056 0.007,0.308 -0.168,0.665 -0.175,0.35 -0.385,0.35 -0.14,0 -0.259,-0.168 -0.056,-0.07 -0.28,-0.665 -0.161001,-0.399 -0.161001,-0.63 z"
         style="font-size:7.00000048px;writing-mode:lr-tb;stroke:#ffffff;stroke-width:0;stroke-miterlimit:4;stroke-dasharray:none"
         id="path833"
         inkscape:connector-curvature="0" />
      <path
         d="m 72.106344,17.839058 q 0,-0.287 0.028,-0.658 0.049,-0.826 0.077,-2.814 0.007,-0.637 0.021,-0.658 0.014,-0.028 0.028,-0.301 0.014,-0.469 0.406,-0.469 0.252,0 0.497,0.252 0.336,0.343 0.336,1.141 0,0.413 -0.084,0.924 -0.077,0.511 -0.21,1.106 -0.133,0.588 -0.161,0.742 -0.021,0.105 -0.042,0.245 -0.014,0.133 -0.021,0.161 -0.203,0.966 -0.413,1.008 h -0.021 q -0.063,0 -0.154,-0.035 -0.091,-0.035 -0.126,-0.07 -0.161,-0.161 -0.161,-0.574 z m 2.156,-1.295 q 0,-1.036 0.161,-1.995 0.161,-0.966 0.441,-1.421 0.182,-0.301 0.357,-0.301 0.252,0 0.406,0.49 0.084,0.224 0.084,0.784 0,0.567 -0.105,1.736 -0.105,1.169 -0.105,1.386 v 0.056 l 0.014,0.385 0.378,-0.028 q 0.469,-0.035 0.931,-0.133 l 0.56,-0.119 0.091,0.126 q 0.063,0.084 0.063,0.126 0,0.063 -0.049,0.189 -0.133,0.392 -0.609,0.623 -0.469,0.231 -1.036,0.231 -0.588,0 -1.022,-0.252 -0.427,-0.259 -0.497,-0.749 -0.063,-0.511 -0.063,-1.134 z"
         style="font-size:7.00000048px;writing-mode:lr-tb;stroke:#ffffff;stroke-width:0;stroke-miterlimit:4;stroke-dasharray:none"
         id="path835"
         inkscape:connector-curvature="0" />
      <path
         d="m 78.686345,13.905058 q 0,-0.07 0.112,-0.168 0.112,-0.098 0.154,-0.105 0.812,-0.126 2.037,-0.371 1.232,-0.245 1.673,-0.322 0.266,-0.049 0.581,-0.049 0.469,0 0.763,0.154 0.301,0.154 0.301,0.504 -0.091,0.399 -0.287,0.679 l -3.22,4.69 q -0.091,-0.063 -0.091,-0.259 0,-0.098 0.021,-0.217 0.021,-0.119 0.049,-0.238 0.028,-0.126 0.035,-0.168 0.133,-0.728 0.791,-2.086 0.665,-1.365 0.833,-1.855 -0.014,-0.063 -0.105,-0.063 -0.07,0 -0.119,0.014 -0.14,0.021 -1.036,0.224 -0.896,0.196 -1.351,0.196 -0.686,0 -1.029,-0.35 -0.007,-0.056 -0.063,-0.112 -0.049,-0.063 -0.049,-0.098 z"
         style="font-size:7.00000048px;writing-mode:lr-tb;stroke:#ffffff;stroke-width:0;stroke-miterlimit:4;stroke-dasharray:none"
         id="path837"
         inkscape:connector-curvature="0" />
      <path
         d="m 85.525345,15.872058 q 0,-0.147 0.238,-0.266 0.245,-0.126 0.679,-0.196 0.413,-0.056 1.792,-0.259 1.386,-0.203 2.107,-0.301 0.756,0.126 0.959,0.56 -0.371,0.301 -1.848,0.637 -1.47,0.329 -2.534,0.329 -0.476,0 -0.749,-0.077 -0.644,-0.182 -0.644,-0.427 z"
         style="font-size:7.00000048px;writing-mode:lr-tb;stroke:#ffffff;stroke-width:0;stroke-miterlimit:4;stroke-dasharray:none"
         id="path839"
         inkscape:connector-curvature="0" />
      <path
         d="m 93.974347,13.828058 q 0,-0.455 0.035,-0.504 0.049,-0.056 0.301,-0.077 0.259,-0.021 0.273,-0.035 0.014,-0.014 0.021,-0.014 0.014,-0.007 0.028,0 0.021,0.007 0.035,0.021 0.021,0.007 0.049,0.021 0.028,0.014 0.056,0.028 0.301,0.147 0.371,0.392 0.035,0.126 0.035,0.798 v 0.672 l 0.168,0.035 q 0.371,0.077 1.176,0.553 0.861,0.504 1.134,0.735 l 0.154,0.133 -0.077,0.098 q -0.091,0.112 -0.189,0.147 -0.091,0.035 -0.315,0.035 -0.245,0 -0.448,-0.056 -0.28,-0.084 -0.637,-0.245 -0.399,-0.182 -0.63,-0.336 -0.259,-0.175 -0.301,-0.175 -0.077,0 -0.077,1.26 0,0.504 -0.014,0.714 -0.014,0.259 -0.28,0.483 -0.133,0.112 -0.238,0.112 -0.112,0 -0.203,-0.133 -0.098,-0.14 -0.147,-0.413 -0.091,-0.504 -0.196,-2.163 -0.084,-1.379 -0.084,-2.086 z m 2.254,0.014 q -0.063,-0.168 0.049,-0.168 0.126,-0.035 0.231,-0.035 0.259,0 0.448,0.147 0.189,0.14 0.196,0.385 0.021,0.07 0.021,0.168 0,0.168 -0.07,0.301 -0.063,0.133 -0.175,0.133 -0.077,0 -0.182,-0.084 -0.294,-0.259 -0.518,-0.847 z m 0.854,-0.483 q 0,-0.091 0.154,-0.098 h 0.014 q 0.28,0 0.511,0.168 0.238,0.168 0.238,0.434 0,0.168 -0.112,0.294 -0.112,0.126 -0.273,0.126 -0.084,0 -0.133,-0.014 l -0.35,-0.7 -0.042,-0.168 q 0,-0.007 -0.007,-0.021 0,-0.014 0,-0.021 z"
         style="font-size:7.00000048px;writing-mode:lr-tb;stroke:#ffffff;stroke-width:0;stroke-miterlimit:4;stroke-dasharray:none"
         id="path841"
         inkscape:connector-curvature="0" />
      <path
         d="m 99.861347,16.376058 q 0,-0.154 0.182003,-0.287 0.189,-0.133 0.546,-0.28 0.357,-0.147 0.385,-0.161 0.49,-0.259 1.834,-0.574 0.371,-0.084 0.714,-0.196 0.343,-0.119 0.532,-0.175 0.189,-0.063 0.315,-0.063 0.161,0 0.329,0.098 0.168,0.091 0.441,0.329 -0.035,0.119 -0.49,0.294 -0.448,0.168 -0.98,0.322 -0.525,0.154 -0.588,0.182 0.042,0.21 0.042,0.245 0,0.105 -0.042,0.182 -0.098,0.189 -0.378,1.036 -0.28,0.847 -0.322,1.085 -0.021,0.112 -0.133,0.196 -0.112,0.077 -0.266,0.077 -0.196,0 -0.189,-0.238 l 0.119,-2.177 q 0.007,-0.007 0.007,-0.021 0,-0.007 -0.007,-0.007 -0.028,0 -0.308,0.126 -0.28,0.126 -0.644,0.252 -0.364,0.126 -0.609,0.126 -0.203,0 -0.315,-0.091 -0.175003,-0.133 -0.175003,-0.28 z m 0.280003,-2.38 q 0,-0.133 0.077,-0.14 0.168,-0.028 0.798,-0.203 0.63,-0.175 1.288,-0.315 0.658,-0.147 1.085,-0.147 0.252,0 0.371,0.042 0.126,0.042 0.217,0.189 l 0.119,0.175 -0.231,0.147 q -0.413,0.217 -1.596,0.504 -1.183,0.28 -1.428,0.28 l -0.021,-0.007 q -0.182,-0.042 -0.427,-0.168 -0.245,-0.126 -0.217,-0.238 -0.035,-0.035 -0.035,-0.119 z m 4.319,-0.56 q -0.056,-0.161 0.049,-0.161 0.126,-0.035 0.224,-0.035 0.238,0 0.413,0.14 0.182,0.14 0.189,0.371 0.021,0.07 0.021,0.161 0,0.154 -0.07,0.28 -0.063,0.126 -0.168,0.126 -0.084,0 -0.168,-0.077 -0.28,-0.252 -0.49,-0.805 z m 0.812,-0.462 q 0,-0.077 0.147,-0.091 h 0.014 q 0.259,0 0.483,0.161 0.231,0.154 0.231,0.406 0,0.168 -0.119,0.287 -0.112,0.119 -0.266,0.119 -0.035,0 -0.119,-0.014 l -0.322,-0.665 -0.042,-0.161 q -0.007,-0.014 -0.007,-0.042 z"
         style="font-size:7.00000048px;writing-mode:lr-tb;stroke:#ffffff;stroke-width:0;stroke-miterlimit:4;stroke-dasharray:none"
         id="path843"
         inkscape:connector-curvature="0" />
      <path
         d="m 107.47035,13.128058 q 0,-0.007 0.007,-0.007 l 0.084,-0.077 q 0.056,-0.063 0.098,-0.077 0.056,-0.014 0.259,-0.021 0.224,-0.007 0.406,0.07 0.196,0.084 0.259,0.196 0.063,0.112 0.07,0.196 0,0.238 -0.028,0.357 -0.035,0.147 -0.063,0.455 -0.021,0.301 -0.028,0.357 -0.007,0.049 -0.028,0.259 -0.021,0.224 -0.042,0.252 h -0.007 q -0.014,0.021 0.007,0.308 0.021,0.294 0,0.343 -0.021,0.028 -0.007,0.063 0.014,0.042 -0.105,0.175 -0.105,0.112 -0.182,0.133 -0.063,0.014 -0.182,0.021 -0.133,0.007 -0.231,-0.084 -0.091,-0.098 -0.168,-0.35 -0.07,-0.259 -0.091,-0.49 -0.014,-0.308 -0.021,-0.931 z m 1.19,5.502 q 0,0 0.007,-0.007 0.7,-0.455 1.344,-1.687 0.609,-1.148 0.644,-2.506 v 0 q -0.028,-1.428 -0.014,-1.442 0.112,-0.098 0.546,-0.119 0.119,-0.007 0.203,0.07 0.28,0.182 0.329,0.42 0.063,0.343 0.056,0.686 l -0.014,0.476 q 0.007,0.084 0.007,0.168 0,0.35 -0.042,0.623 -0.084,0.56 -0.252,0.994 -0.161,0.434 -0.448,0.812 -0.28,0.371 -0.539,0.623 -0.441,0.434 -0.686,0.637 v 0.007 q -0.364,0.308 -0.826,0.301 -0.294,0 -0.308,-0.035 0,-0.007 -0.007,-0.021 z"
         style="font-size:7.00000048px;writing-mode:lr-tb;stroke:#ffffff;stroke-width:0;stroke-miterlimit:4;stroke-dasharray:none"
         id="path845"
         inkscape:connector-curvature="0" />
      <path
         d="m 113.67935,18.329058 0.581,-3.801 q 0.231,-0.756 0.259,-0.854 0.07,-0.28 0.14,-0.364 0.07,-0.084 0.294,-0.084 0.329,0 0.476,0.063 0.154,0.063 0.259,0.273 l 0.07,0.14 -0.259,0.77 q 0,0.007 -0.021,0.077 -0.021,0.063 -0.063,0.231 -0.042,0.161 -0.091,0.329 -0.434,1.533 -0.658,2.198 -0.182,0.518 -0.413,0.896 -0.217,0.35 -0.399,0.357 l -0.147,0.007 z m 3.339,-4.55 q 0,-0.231 0.238,-0.231 0.056,0 0.105,0.007 0.049,0.007 0.112,0.021 0.063,0.014 0.126,0.021 0.231,0.035 0.364,0.28 0.154,0.28 0.252,0.798 0.028,0.154 0.112,0.399 0.084,0.245 0.161,0.434 0.084,0.189 0.203,0.476 0.119,0.287 0.154,0.378 0.196,0.497 0.308,0.945 0.056,0.245 0.056,0.392 0,0.175 -0.056,0.273 -0.063,0.105 -0.189,0.105 h -0.063 q -0.308,-0.014 -0.602,-0.336 -0.497,-0.553 -0.882,-1.834 -0.322,-1.078 -0.378,-1.764 -0.021,-0.238 -0.021,-0.364 z m 1.4,-0.301 q -0.063,-0.168 0.049,-0.168 0.126,-0.035 0.231,-0.035 0.259,0 0.448,0.147 0.189,0.14 0.196,0.385 0.021,0.07 0.021,0.168 0,0.168 -0.07,0.301 -0.063,0.133 -0.175,0.133 -0.077,0 -0.182,-0.084 -0.294,-0.259 -0.518,-0.847 z m 0.854,-0.483 q 0,-0.091 0.154,-0.098 h 0.014 q 0.28,0 0.511,0.168 0.238,0.168 0.238,0.434 0,0.168 -0.112,0.294 -0.112,0.126 -0.273,0.126 -0.084,0 -0.133,-0.014 l -0.35,-0.7 -0.042,-0.168 q 0,-0.007 -0.007,-0.021 0,-0.014 0,-0.021 z"
         style="font-size:7.00000048px;writing-mode:lr-tb;stroke:#ffffff;stroke-width:0;stroke-miterlimit:4;stroke-dasharray:none"
         id="path847"
         inkscape:connector-curvature="0" />
      <path
         d="m 121.47035,13.128058 q 0,-0.007 0.007,-0.007 l 0.084,-0.077 q 0.056,-0.063 0.098,-0.077 0.056,-0.014 0.259,-0.021 0.224,-0.007 0.406,0.07 0.196,0.084 0.259,0.196 0.063,0.112 0.07,0.196 0,0.238 -0.028,0.357 -0.035,0.147 -0.063,0.455 -0.021,0.301 -0.028,0.357 -0.007,0.049 -0.028,0.259 -0.021,0.224 -0.042,0.252 h -0.007 q -0.014,0.021 0.007,0.308 0.021,0.294 0,0.343 -0.021,0.028 -0.007,0.063 0.014,0.042 -0.105,0.175 -0.105,0.112 -0.182,0.133 -0.063,0.014 -0.182,0.021 -0.133,0.007 -0.231,-0.084 -0.091,-0.098 -0.168,-0.35 -0.07,-0.259 -0.091,-0.49 -0.014,-0.308 -0.021,-0.931 z m 1.19,5.502 q 0,0 0.007,-0.007 0.7,-0.455 1.344,-1.687 0.609,-1.148 0.644,-2.506 v 0 q -0.028,-1.428 -0.014,-1.442 0.112,-0.098 0.546,-0.119 0.119,-0.007 0.203,0.07 0.28,0.182 0.329,0.42 0.063,0.343 0.056,0.686 l -0.014,0.476 q 0.007,0.084 0.007,0.168 0,0.35 -0.042,0.623 -0.084,0.56 -0.252,0.994 -0.161,0.434 -0.448,0.812 -0.28,0.371 -0.539,0.623 -0.441,0.434 -0.686,0.637 v 0.007 q -0.364,0.308 -0.826,0.301 -0.294,0 -0.308,-0.035 0,-0.007 -0.007,-0.021 z"
         style="font-size:7.00000048px;writing-mode:lr-tb;stroke:#ffffff;stroke-width:0;stroke-miterlimit:4;stroke-dasharray:none"
         id="path849"
         inkscape:connector-curvature="0" />
      <path
         d="m 127.52535,15.872058 q 0,-0.147 0.238,-0.266 0.245,-0.126 0.679,-0.196 0.413,-0.056 1.792,-0.259 1.386,-0.203 2.107,-0.301 0.756,0.126 0.959,0.56 -0.371,0.301 -1.848,0.637 -1.47,0.329 -2.534,0.329 -0.476,0 -0.749,-0.077 -0.644,-0.182 -0.644,-0.427 z"
         style="font-size:7.00000048px;writing-mode:lr-tb;stroke:#ffffff;stroke-width:0;stroke-miterlimit:4;stroke-dasharray:none"
         id="path851"
         inkscape:connector-curvature="0" />
    </g>
  </g>
</svg>
